M48
METRIC,LZ,000.000
;FILE_FORMAT=3:3
;TYPE=PLATED
;Layer: PTH_Through
;EasyEDA v6.5.47, 2024-10-12 02:41:22
;de610928b34d45079a866c0004aef406,b136c329f792480eb7d0c4728c74c1db,10
;Gerber Generator version 0.2
;Holesize 1 = 0.310 mm
T01C0.310
;Holesize 2 = 0.915 mm
T02C0.915
;Holesize 3 = 1.000 mm
T03C1.000
%
G05
G90
T01
X010033Y-032766
X008890Y-032766
X-010287Y-036703
X-001397Y-036703
T02
X-013462Y-031623
X-013462Y-036703
X-005842Y-031623
X-005842Y-036703
X-003683Y-031623
X-003683Y-036703
X003937Y-031623
X003937Y-036703
X006096Y-031623
X006096Y-036703
X013716Y-031623
X013716Y-036703
X-007366Y-025654
X-007366Y-023114
X007234Y-023114
X007234Y-025654
X007234Y-020574
X-007366Y-020574
X-003693Y013957
X-001135Y013957
X001405Y013957
X003945Y013957
T03
X011430Y-065532G85X011430Y-065532
X-011430Y-065532G85X-011430Y-065532
X011430Y-047752G85X011430Y-047752
X011430Y-050292G85X011430Y-050292
X011430Y-052832G85X011430Y-052832
X011430Y-055372G85X011430Y-055372
X011430Y-057912G85X011430Y-057912
X011430Y-060452G85X011430Y-060452
X011430Y-062992G85X011430Y-062992
X-011430Y-047752G85X-011430Y-047752
X-011430Y-050292G85X-011430Y-050292
X-011430Y-052832G85X-011430Y-052832
X-011430Y-055372G85X-011430Y-055372
X-011430Y-057912G85X-011430Y-057912
X-011430Y-060452G85X-011430Y-060452
X-011430Y-062992G85X-011430Y-062992
M30
