G04 Layer: TopLayer*
G04 EasyEDA v6.5.47, 2024-10-12 02:41:22*
G04 de610928b34d45079a866c0004aef406,b136c329f792480eb7d0c4728c74c1db,10*
G04 Gerber Generator version 0.2*
G04 Scale: 100 percent, Rotated: No, Reflected: No *
G04 Dimensions in millimeters *
G04 leading zeros omitted , absolute positions ,4 integer and 5 decimal *
%FSLAX45Y45*%
%MOMM*%

%ADD10C,0.4000*%
%ADD11C,0.2540*%
%ADD12C,1.5240*%
%ADD13C,1.5080*%
%ADD14R,1.5240X1.5240*%
%ADD15C,0.6200*%

%LPD*%
D10*
X-113537Y1395729D02*
G01*
X-113537Y-1180337D01*
X-901700Y-1968500D01*
X-901700Y-2400300D01*
X-736600Y-2565400D01*
X-139700Y-3670300D02*
G01*
X393700Y-3670300D01*
X-1028700Y-3670300D02*
G01*
X-368300Y-3670300D01*
X-736600Y-2057400D02*
G01*
X723392Y-2057400D01*
X-736600Y-2565400D02*
G01*
X723392Y-2565400D01*
D11*
X889000Y-3276600D02*
G01*
X889000Y-5283200D01*
X1143000Y-5537200D01*
X1143000Y-5283200D02*
G01*
X1003300Y-5143500D01*
X1003300Y-4635500D01*
X1003300Y-3276600D01*
X-1346200Y-3162300D02*
G01*
X-1117600Y-3390900D01*
X-1117600Y-4483100D01*
X-1295400Y-4660900D01*
X-1295400Y-5892800D01*
X-1143000Y-6045200D01*
X-1143000Y-5791200D02*
G01*
X736600Y-3911600D01*
X736600Y-3289300D01*
X609600Y-3162300D01*
X1371600Y-3162300D02*
G01*
X609600Y-3162300D01*
X-1346200Y-3162300D02*
G01*
X-584200Y-3162300D01*
X-368300Y-3162300D02*
G01*
X393700Y-3162300D01*
X-1143000Y-5537200D02*
G01*
X-228600Y-4622800D01*
X-228600Y-3302000D01*
X-368300Y-3162300D01*
D12*
G01*
X-1346200Y-3162300D03*
G01*
X-1346200Y-3670300D03*
G01*
X-584200Y-3162300D03*
G01*
X-584200Y-3670300D03*
G01*
X-368300Y-3162300D03*
G01*
X-368300Y-3670300D03*
G01*
X393700Y-3162300D03*
G01*
X393700Y-3670300D03*
G01*
X609600Y-3162300D03*
G01*
X609600Y-3670300D03*
G01*
X1371600Y-3162300D03*
G01*
X1371600Y-3670300D03*
D13*
G01*
X1143000Y-6553200D03*
G01*
X-1143000Y-6553200D03*
G01*
X1143000Y-4775200D03*
G01*
X1143000Y-5029200D03*
G01*
X1143000Y-5283200D03*
G01*
X1143000Y-5537200D03*
G01*
X1143000Y-5791200D03*
G01*
X1143000Y-6045200D03*
G01*
X1143000Y-6299200D03*
G01*
X-1143000Y-4775200D03*
G01*
X-1143000Y-5029200D03*
G01*
X-1143000Y-5283200D03*
G01*
X-1143000Y-5537200D03*
G01*
X-1143000Y-5791200D03*
G01*
X-1143000Y-6045200D03*
G01*
X-1143000Y-6299200D03*
D12*
G01*
X-736600Y-2565400D03*
G01*
X-736600Y-2311400D03*
G01*
X723392Y-2311400D03*
G01*
X723392Y-2565400D03*
D14*
G01*
X723392Y-2057400D03*
G01*
X-736600Y-2057400D03*
G01*
X-369341Y1395679D03*
D12*
G01*
X-113537Y1395729D03*
G01*
X140462Y1395729D03*
G01*
X394462Y1395729D03*
D15*
G01*
X1003300Y-3276600D03*
G01*
X889000Y-3276600D03*
G01*
X-1028700Y-3670300D03*
G01*
X-139700Y-3670300D03*
M02*
