G04 Layer: BottomSilkscreenLayer*
G04 EasyEDA v6.5.47, 2024-10-12 02:41:22*
G04 de610928b34d45079a866c0004aef406,b136c329f792480eb7d0c4728c74c1db,10*
G04 Gerber Generator version 0.2*
G04 Scale: 100 percent, Rotated: No, Reflected: No *
G04 Dimensions in millimeters *
G04 leading zeros omitted , absolute positions ,4 integer and 5 decimal *
%FSLAX45Y45*%
%MOMM*%

%ADD10C,0.2032*%

%LPD*%
D10*
X584200Y-2261362D02*
G01*
X584200Y-2356865D01*
X584200Y-2261362D02*
G01*
X552450Y-2261362D01*
X538734Y-2265934D01*
X529589Y-2274823D01*
X525018Y-2283968D01*
X520445Y-2297684D01*
X520445Y-2320289D01*
X525018Y-2334005D01*
X529589Y-2343150D01*
X538734Y-2352294D01*
X552450Y-2356865D01*
X584200Y-2356865D01*
X463295Y-2261362D02*
G01*
X472439Y-2265934D01*
X481584Y-2274823D01*
X485902Y-2283968D01*
X490473Y-2297684D01*
X490473Y-2320289D01*
X485902Y-2334005D01*
X481584Y-2343150D01*
X472439Y-2352294D01*
X463295Y-2356865D01*
X445007Y-2356865D01*
X436118Y-2352294D01*
X426973Y-2343150D01*
X422402Y-2334005D01*
X417829Y-2320289D01*
X417829Y-2297684D01*
X422402Y-2283968D01*
X426973Y-2274823D01*
X436118Y-2265934D01*
X445007Y-2261362D01*
X463295Y-2261362D01*
X-419100Y-2261290D02*
G01*
X-419100Y-2356746D01*
X-419100Y-2261290D02*
G01*
X-450918Y-2261290D01*
X-464553Y-2265837D01*
X-473646Y-2274928D01*
X-478190Y-2284018D01*
X-482737Y-2297653D01*
X-482737Y-2320381D01*
X-478190Y-2334018D01*
X-473646Y-2343109D01*
X-464553Y-2352200D01*
X-450918Y-2356746D01*
X-419100Y-2356746D01*
X-512737Y-2261290D02*
G01*
X-512737Y-2356746D01*
X-473646Y-2019990D02*
G01*
X-428190Y-2019990D01*
X-423646Y-2060900D01*
X-428190Y-2056353D01*
X-441827Y-2051809D01*
X-455462Y-2051809D01*
X-469099Y-2056353D01*
X-478190Y-2065446D01*
X-482737Y-2079081D01*
X-482737Y-2088172D01*
X-478190Y-2101809D01*
X-469099Y-2110900D01*
X-455462Y-2115446D01*
X-441827Y-2115446D01*
X-428190Y-2110900D01*
X-423646Y-2106353D01*
X-419100Y-2097262D01*
X-512737Y-2019990D02*
G01*
X-549099Y-2115446D01*
X-585462Y-2019990D02*
G01*
X-549099Y-2115446D01*
X542353Y-2007290D02*
G01*
X587809Y-2007290D01*
X592353Y-2048200D01*
X587809Y-2043653D01*
X574172Y-2039109D01*
X560537Y-2039109D01*
X546900Y-2043653D01*
X537809Y-2052746D01*
X533262Y-2066381D01*
X533262Y-2075472D01*
X537809Y-2089109D01*
X546900Y-2098200D01*
X560537Y-2102746D01*
X574172Y-2102746D01*
X587809Y-2098200D01*
X592353Y-2093653D01*
X596900Y-2084562D01*
X503262Y-2007290D02*
G01*
X466900Y-2102746D01*
X430537Y-2007290D02*
G01*
X466900Y-2102746D01*
X516018Y-2538018D02*
G01*
X520562Y-2528928D01*
X529653Y-2519837D01*
X538746Y-2515290D01*
X556928Y-2515290D01*
X566018Y-2519837D01*
X575109Y-2528928D01*
X579653Y-2538018D01*
X584200Y-2551653D01*
X584200Y-2574381D01*
X579653Y-2588018D01*
X575109Y-2597109D01*
X566018Y-2606200D01*
X556928Y-2610746D01*
X538746Y-2610746D01*
X529653Y-2606200D01*
X520562Y-2597109D01*
X516018Y-2588018D01*
X516018Y-2574381D01*
X538746Y-2574381D02*
G01*
X516018Y-2574381D01*
X486018Y-2515290D02*
G01*
X486018Y-2610746D01*
X486018Y-2515290D02*
G01*
X422381Y-2610746D01*
X422381Y-2515290D02*
G01*
X422381Y-2610746D01*
X392381Y-2515290D02*
G01*
X392381Y-2610746D01*
X392381Y-2515290D02*
G01*
X360563Y-2515290D01*
X346928Y-2519837D01*
X337835Y-2528928D01*
X333291Y-2538018D01*
X328744Y-2551653D01*
X328744Y-2574381D01*
X333291Y-2588018D01*
X337835Y-2597109D01*
X346928Y-2606200D01*
X360563Y-2610746D01*
X392381Y-2610746D01*
X-398381Y-2538018D02*
G01*
X-393837Y-2528928D01*
X-384746Y-2519837D01*
X-375653Y-2515290D01*
X-357471Y-2515290D01*
X-348381Y-2519837D01*
X-339290Y-2528928D01*
X-334746Y-2538018D01*
X-330200Y-2551653D01*
X-330200Y-2574381D01*
X-334746Y-2588018D01*
X-339290Y-2597109D01*
X-348381Y-2606200D01*
X-357471Y-2610746D01*
X-375653Y-2610746D01*
X-384746Y-2606200D01*
X-393837Y-2597109D01*
X-398381Y-2588018D01*
X-398381Y-2574381D01*
X-375653Y-2574381D02*
G01*
X-398381Y-2574381D01*
X-428381Y-2515290D02*
G01*
X-428381Y-2610746D01*
X-428381Y-2515290D02*
G01*
X-492018Y-2610746D01*
X-492018Y-2515290D02*
G01*
X-492018Y-2610746D01*
X-522018Y-2515290D02*
G01*
X-522018Y-2610746D01*
X-522018Y-2515290D02*
G01*
X-553836Y-2515290D01*
X-567471Y-2519837D01*
X-576564Y-2528928D01*
X-581108Y-2538018D01*
X-585655Y-2551653D01*
X-585655Y-2574381D01*
X-581108Y-2588018D01*
X-576564Y-2597109D01*
X-567471Y-2606200D01*
X-553836Y-2610746D01*
X-522018Y-2610746D01*
X279400Y-1689862D02*
G01*
X256794Y-1785365D01*
X233934Y-1689862D02*
G01*
X256794Y-1785365D01*
X233934Y-1689862D02*
G01*
X211328Y-1785365D01*
X188468Y-1689862D02*
G01*
X211328Y-1785365D01*
X94742Y-1703323D02*
G01*
X103886Y-1694434D01*
X117602Y-1689862D01*
X135889Y-1689862D01*
X149352Y-1694434D01*
X158495Y-1703323D01*
X158495Y-1712468D01*
X153923Y-1721612D01*
X149352Y-1726184D01*
X140207Y-1730755D01*
X113029Y-1739900D01*
X103886Y-1744218D01*
X99313Y-1748789D01*
X94742Y-1757934D01*
X94742Y-1771650D01*
X103886Y-1780794D01*
X117602Y-1785365D01*
X135889Y-1785365D01*
X149352Y-1780794D01*
X158495Y-1771650D01*
X60197Y-1712468D02*
G01*
X60197Y-1707895D01*
X55879Y-1699005D01*
X51307Y-1694434D01*
X42163Y-1689862D01*
X23876Y-1689862D01*
X14731Y-1694434D01*
X10413Y-1699005D01*
X5842Y-1707895D01*
X5842Y-1717039D01*
X10413Y-1726184D01*
X19304Y-1739900D01*
X64770Y-1785365D01*
X1270Y-1785365D01*
X-51562Y-1689862D02*
G01*
X-37845Y-1694434D01*
X-33273Y-1703323D01*
X-33273Y-1712468D01*
X-37845Y-1721612D01*
X-46989Y-1726184D01*
X-65023Y-1730755D01*
X-78739Y-1735328D01*
X-87884Y-1744218D01*
X-92455Y-1753362D01*
X-92455Y-1767078D01*
X-87884Y-1776221D01*
X-83312Y-1780794D01*
X-69595Y-1785365D01*
X-51562Y-1785365D01*
X-37845Y-1780794D01*
X-33273Y-1776221D01*
X-28702Y-1767078D01*
X-28702Y-1753362D01*
X-33273Y-1744218D01*
X-42418Y-1735328D01*
X-56134Y-1730755D01*
X-74168Y-1726184D01*
X-83312Y-1721612D01*
X-87884Y-1712468D01*
X-87884Y-1703323D01*
X-83312Y-1694434D01*
X-69595Y-1689862D01*
X-51562Y-1689862D01*
X-122428Y-1707895D02*
G01*
X-131571Y-1703323D01*
X-145034Y-1689862D01*
X-145034Y-1785365D01*
X-179578Y-1712468D02*
G01*
X-179578Y-1707895D01*
X-184150Y-1699005D01*
X-188721Y-1694434D01*
X-197865Y-1689862D01*
X-216154Y-1689862D01*
X-225044Y-1694434D01*
X-229615Y-1699005D01*
X-234187Y-1707895D01*
X-234187Y-1717039D01*
X-229615Y-1726184D01*
X-220726Y-1739900D01*
X-175260Y-1785365D01*
X-238760Y-1785365D01*
M02*
